/* XPM */
static char * heatWeight_xpm[] = {
"32 32 341 2",
"  	c #C1C1C1",
". 	c #C0C0C0",
"+ 	c #BFBFBD",
"@ 	c #BEBEBA",
"# 	c #676664",
"$ 	c #191918",
"% 	c #000000",
"& 	c #4D4C48",
"* 	c #4C4C48",
"= 	c #181817",
"- 	c #4B4B46",
"; 	c #31312E",
"> 	c #7D7D75",
", 	c #4C4B47",
"' 	c #0C0C0B",
") 	c #4B4B45",
"! 	c #4D4D4A",
"~ 	c #AEB1B9",
"{ 	c #88AFBF",
"] 	c #7AABC2",
"^ 	c #86B1C1",
"/ 	c #181A19",
"( 	c #D50A0A",
"_ 	c #F60B0B",
": 	c #B40808",
"< 	c #30302B",
"[ 	c #420303",
"} 	c #E60A0A",
"| 	c #520404",
"1 	c #AEB7B0",
"2 	c #186599",
"3 	c #0066AF",
"4 	c #0074C5",
"5 	c #017FD2",
"6 	c #0286DC",
"7 	c #03131D",
"8 	c #940707",
"9 	c #730505",
"0 	c #525248",
"a 	c #830606",
"b 	c #310202",
"c 	c #899B9E",
"d 	c #00477A",
"e 	c #005B9A",
"f 	c #0069B3",
"g 	c #0074C4",
"h 	c #017ED0",
"i 	c #0286D9",
"j 	c #01131E",
"k 	c #171714",
"l 	c #5D5C51",
"m 	c #2E2E28",
"n 	c #7D7C75",
"o 	c #AEAEA1",
"p 	c #003255",
"q 	c #005896",
"r 	c #0071BF",
"s 	c #017ECF",
"t 	c #1FA1E4",
"u 	c #081A1E",
"v 	c #2E2E27",
"w 	c #0C0B0A",
"x 	c #C50909",
"y 	c #B8B7AC",
"z 	c #002F50",
"A 	c #004475",
"B 	c #00548E",
"C 	c #0061A5",
"D 	c #006CB7",
"E 	c #0378C4",
"F 	c #219DDD",
"G 	c #0C1D1D",
"H 	c #210101",
"I 	c #A40707",
"J 	c #B8B8AD",
"K 	c #BBBDB1",
"L 	c #001B2E",
"M 	c #002A48",
"N 	c #003E6A",
"O 	c #004D84",
"P 	c #0065AC",
"Q 	c #006FB8",
"R 	c #087FC9",
"S 	c #0A171B",
"T 	c #620404",
"U 	c #B9B9B0",
"V 	c #959D96",
"W 	c #001D31",
"X 	c #002642",
"Y 	c #00375D",
"Z 	c #00538D",
"` 	c #317BAA",
" .	c #86ABB7",
"..	c #BABAB1",
"+.	c #171712",
"@.	c #555544",
"#.	c #100101",
"$.	c #001E35",
"%.	c #89A4AC",
"&.	c #C0C0BF",
"*.	c #8A897D",
"=.	c #3F3F39",
"-.	c #050504",
";.	c #BBBBB3",
">.	c #AEB3AA",
",.	c #002C4B",
"'.	c #C1C1B3",
").	c #41413C",
"!.	c #121211",
"~.	c #111111",
"{.	c #020202",
"].	c #0D0D0B",
"^.	c #BCBCB6",
"/.	c #254253",
"(.	c #57717D",
"_.	c #CBCBBC",
":.	c #2D2D2C",
"<.	c #121212",
"[.	c #353532",
"}.	c #8A8A7D",
"|.	c #131717",
"1.	c #505046",
"2.	c #31312C",
"3.	c #040404",
"4.	c #282723",
"5.	c #181816",
"6.	c #0C0C0A",
"7.	c #090908",
"8.	c #0D0D0C",
"9.	c #2A2925",
"0.	c #191817",
"a.	c #4D4D4B",
"b.	c #BEBDBA",
"c.	c #899492",
"d.	c #BDC3B3",
"e.	c #65655F",
"f.	c #0F0F0F",
"g.	c #3D3D3B",
"h.	c #C1C4B7",
"i.	c #658EA1",
"j.	c #00538A",
"k.	c #00528A",
"l.	c #30789B",
"m.	c #BABAA8",
"n.	c #737368",
"o.	c #B2B19E",
"p.	c #191917",
"q.	c #8C8B7C",
"r.	c #BAB9B1",
"s.	c #A7B694",
"t.	c #6C965F",
"u.	c #B6BCA5",
"v.	c #5E5E53",
"w.	c #828276",
"x.	c #BBBBB4",
"y.	c #BBBBB5",
"z.	c #BCBCB7",
"A.	c #BFBFBC",
"B.	c #95A09D",
"C.	c #1A1A19",
"D.	c #C1C1B5",
"E.	c #356079",
"F.	c #003B61",
"G.	c #003F6A",
"H.	c #004277",
"I.	c #93A8AF",
"J.	c #6F6F65",
"K.	c #222221",
"L.	c #939386",
"M.	c #B4B4A3",
"N.	c #1F1E1D",
"O.	c #393936",
"P.	c #C8C8B4",
"Q.	c #186316",
"R.	c #006000",
"S.	c #0B840B",
"T.	c #AFBF9E",
"U.	c #2C2C2A",
"V.	c #32322F",
"W.	c #B6B6A5",
"X.	c #BEBEBB",
"Y.	c #BFBEBC",
"Z.	c #95958A",
"`.	c #51514D",
" +	c #95A5A5",
".+	c #003B62",
"++	c #004066",
"@+	c #00376B",
"#+	c #CACABA",
"$+	c #464641",
"%+	c #2C2C2B",
"&+	c #CBCBBB",
"*+	c #54534D",
"=+	c #171717",
"-+	c #9A9A8E",
";+	c #3E7738",
">+	c #3A9D37",
",+	c #20A320",
"'+	c #63AB5B",
")+	c #7A7A72",
"!+	c #1B1B1B",
"~+	c #898981",
"{+	c #C1C1C0",
"]+	c #86867C",
"^+	c #76766E",
"/+	c #7C9095",
"(+	c #254F6A",
"_+	c #3E6479",
":+	c #7C7C98",
"<+	c #4E4E4D",
"[+	c #8C8C82",
"}+	c #95A78A",
"|+	c #708A68",
"1+	c #017501",
"2+	c #3A9E38",
"3+	c #A5A69A",
"4+	c #141618",
"5+	c #7A7B74",
"6+	c #8A8A7F",
"7+	c #2A2A29",
"8+	c #577650",
"9+	c #255C22",
"0+	c #005D00",
"a+	c #4A8945",
"b+	c #A0A399",
"c+	c #1B1D1F",
"d+	c #73736C",
"e+	c #BEBFB1",
"f+	c #1F1F1E",
"g+	c #464642",
"h+	c #CCCCBD",
"i+	c #B9B9AB",
"j+	c #254D22",
"k+	c #003200",
"l+	c #003900",
"m+	c #004A00",
"n+	c #AEBDA1",
"o+	c #1A1A1A",
"p+	c #222222",
"q+	c #919187",
"r+	c #252525",
"s+	c #BABAAC",
"t+	c #C5C5C2",
"u+	c #09185B",
"v+	c #576E5C",
"w+	c #BBC1AC",
"x+	c #262C2E",
"y+	c #B7B7A9",
"z+	c #292927",
"A+	c #30302F",
"B+	c #9B9B90",
"C+	c #333331",
"D+	c #8A8A82",
"E+	c #AAAA9E",
"F+	c #B2B2A5",
"G+	c #19209F",
"H+	c #000585",
"I+	c #676760",
"J+	c #878780",
"K+	c #6B6B67",
"L+	c #B8B8B2",
"M+	c #4E4E4A",
"N+	c #1D1D1D",
"O+	c #BCBCAE",
"P+	c #61615A",
"Q+	c #20201F",
"R+	c #8F8F84",
"S+	c #363633",
"T+	c #41413D",
"U+	c #99998E",
"V+	c #898993",
"W+	c #4C4C47",
"X+	c #262624",
"Y+	c #57576F",
"Z+	c #000067",
"`+	c #7C7CB8",
" @	c #BBBBC6",
".@	c #3E6B3B",
"+@	c #000450",
"@@	c #000086",
"#@	c #0000A3",
"$@	c #0000B9",
"%@	c #95AAB4",
"&@	c #BBBEAC",
"*@	c #0C360B",
"=@	c #005A00",
"-@	c #034528",
";@	c #010796",
">@	c #0000AF",
",@	c #6363C9",
"'@	c #8989C4",
")@	c #7C9273",
"!@	c #579A50",
"~@	c #AEC6A1",
"{@	c #7C8673",
"]@	c #002D00",
"^@	c #3E7839",
"/@	c #AEB5A1",
"(@	c #34784F",
"_@	c #0722B4",
":@	c #0303E3",
"<@	c #0C0DE8",
"[@	c #0002D3",
"}@	c #088308",
"|@	c #169815",
"1@	c #002700",
"2@	c #198517",
"3@	c #002578",
"4@	c #0B0BB7",
"5@	c #0B0BBE",
"6@	c #0B0BC9",
"7@	c #0000BF",
"8@	c #0404CB",
"9@	c #003508",
"0@	c #63875C",
"a@	c #61AC5B",
"b@	c #2DB62D",
"c@	c #183D17",
"d@	c #003400",
"e@	c #004C00",
"f@	c #001550",
"g@	c #00006B",
"h@	c #000071",
"i@	c #000078",
"j@	c #00007E",
"k@	c #00008E",
"l@	c #000096",
"m@	c #000C5E",
"n@	c #0C311D",
"o@	c #0C890B",
"p@	c #31532E",
"q@	c #577B50",
"r@	c #9595A3",
"s@	c #313174",
"t@	c #0C1E39",
"u@	c #315C2E",
"v@	c #186517",
"w@	c #006600",
"x@	c #003D00",
"y@	c #C7CAB8",
"z@	c #89997E",
"              . + @ # $ % & * % = - % % % ; > , % ' ) % % % % ! ",
"            ~ { ] ^ / ( _ % % _ ( % _ _ _ : < [ _ } [ _ _ _ _ | ",
"        1 2 3 4 5 6 7 ( _ % % _ ( % _ } 8 9 0 a _ _ b : _ _ : [ ",
"      c d e f g h i j ( _ % % _ ( % _ ( k l m : _ _ | k ( _ % n ",
"    o p d q 3 r s t u ( _ % % _ ( % _ ( % v w } x _ a k ( _ % y ",
"      z A B C D E F G ( _ _ _ _ ( % _ _ _ : H _ a _ I k ( _ % J ",
"  K L M N O e P Q R S ( _ : : _ ( % _ } 9 | | _ T ( ( k ( _ % U ",
"  V W X Y A Z `  ...= ( _ % % _ ( % _ ( +.@.a _ _ _ _ #.( _ % ..",
"  V $.X z N %.&.*.=.-.( _ % % _ ( % _ } 8 a : _ a x _ [ ( _ % ;.",
"  >.$.X ,.c '.).!.~.{.( _ % % _ ( % _ _ _ ( } ( ].| _ T ( _ % ^.",
"    /.X (._.:.<.[.}.# |.% 1.2.% 3.4.% % % 5.6.7.8.9.% - 0.% a.b.",
"    c.X d.e.f.g.h.i.j.k.l.m.n.o.; p.q.r.s.t.t.u.v.~.w.x.y.z.@ A.",
"      B._.<.C.D.E.F.G.H.I.J.K.L.M.N.O.P.Q.R.S.S.T.U.V.W.X.Y.+ &.",
"        Z.f.`. +Y .+++@+#+$+%+&+&.*+=+-+-+;+>+,+'+)+!+~+&.&.. {+",
"        ]+<.^+/+(+_+:+1   C.<+    ]+<.[+}+  |+1+2+3+4+5+        ",
"        6+<.^+            7+`.    ^+<.Z.8+e.9+0+a+b+c+d+        ",
"        e+f+g+h+          g+<+i+  g+<.#+j+k+l+m+n+5+o+>         ",
"          g.p+q+          6+r+d+s+O.g.t+u+$.v+w+#+x+p+y+        ",
"          #+z+A+B+h+      _.C+7+D+E+F+G+H+H+  _.I+!+`.          ",
"            3+7+%+J+B+F+E+o o z+r+K+F+L+~   E+M+N+A+#+          ",
"              O+P+%+o+p+<.Q+R+3+O.f+p+C+S+%+!+o+T+'.            ",
"                  e+U+]+^+U+F+V+e+Z.W+X+X+p+M+q+                ",
"                            Y+Z+Z+`+ @  _.                      ",
"                        w+.@+@@@#@$@%@                          ",
"                      &@*@=@-@;@>@>@,@'@'@'@t+t+  )@a+!@~@      ",
"                      {@]@^@/@(@_@:@<@:@<@[@[@[@G+l+0+}@|@~@    ",
"                      U+1@.@n+2@3@4@5@$@6@7@8@8@;@9@0@a@b@b@    ",
"                      &@c@d@e@0+f@g@h@i@j@@@k@l@m@n@w+}+1+o@    ",
"                        /@p@j+q@>.r@r@:+:+s@s@u+t@]@u@v@w@w@    ",
"                                                3+c@k+x@m+n+    ",
"                                                  y@z@)@w+      ",
"                                                                "};
